<?xml version="1.0" standalone="no"?>
        <!DOCTYPE svg PUBLIC "-//W3C//DTD SVG 1.1//EN" 
        "http://www.w3.org/Graphics/SVG/1.1/DTD/svg11.dtd"> <svg style="color: blue" role="img" viewBox="0 0 24 24" xmlns="http://www.w3.org/2000/svg"><title>Power BI</title><path d="M21 1v22a1 1 0 0 1-1 1h-3.5V7c0-.827-.673-1.5-1.5-1.5h-2V1a1 1 0 0 1 1-1h6a1 1 0 0 1 1 1zm-6 5H9a1 1 0 0 0-1 1v4.5h2c.827 0 1.5.673 1.5 1.5v11H16V7a1 1 0 0 0-1-1zm-5 6H4a1 1 0 0 0-1 1v10a1 1 0 0 0 1 1h7V13a1 1 0 0 0-1-1z" fill="blue"></path></svg> 